<svg width="1000" height="1000" viewBox="0 0 1000 1000" fill="none" xmlns="http://www.w3.org/2000/svg">
<path d="M291.16 267.9V941" stroke="#070707" stroke-width="0.96" stroke-miterlimit="10"/>
<path d="M216.69 294.18L291.85 388.89L387.79 292.95" stroke="#070707" stroke-width="1.22" stroke-miterlimit="10"/>
<path d="M209.04 242.55L291.85 325.37L374.67 242.55" stroke="#070707" stroke-width="1.22" stroke-miterlimit="10"/>
<path d="M790.51 484C790.51 484 758.8 496.7 808.8 532.21C858.8 567.72 919.8 603.21 881.8 624.52C843.8 645.83 777.8 619.45 843.8 687.41C909.8 755.37 837.8 836.53 837.8 941.02" stroke="#070707" stroke-width="1.01" stroke-miterlimit="10"/>
<path d="M216.05 371.47C216.906 372.218 217.718 373.016 218.48 373.86C222.462 378.258 225.05 383.737 225.918 389.606C226.786 395.475 225.894 401.469 223.356 406.831C220.817 412.193 216.746 416.682 211.657 419.731C206.568 422.779 200.689 424.251 194.763 423.959C188.838 423.666 183.132 421.624 178.368 418.09C173.603 414.555 169.993 409.687 167.994 404.102C165.996 398.516 165.698 392.463 167.139 386.708C168.58 380.953 171.695 375.755 176.09 371.77C176.57 371.33 177.09 370.92 177.56 370.52C177.508 370.483 177.458 370.443 177.41 370.4C174.172 367.542 171.591 364.019 169.842 360.07C168.094 356.121 167.22 351.841 167.281 347.523C167.342 343.205 168.336 338.951 170.194 335.053C172.053 331.155 174.733 327.705 178.05 324.94C177.83 324.77 177.62 324.59 177.41 324.4C172.837 320.327 169.62 314.951 168.191 308.996C166.762 303.041 167.191 296.791 169.418 291.086C171.645 285.381 175.566 280.495 180.652 277.083C185.738 273.672 191.746 271.899 197.869 272.002C203.992 272.105 209.938 274.08 214.906 277.661C219.874 281.242 223.627 286.258 225.661 292.035C227.694 297.811 227.912 304.072 226.283 309.976C224.654 315.879 221.258 321.143 216.55 325.06C216.77 325.23 216.98 325.41 217.19 325.6C220.461 328.498 223.06 332.076 224.804 336.084C226.548 340.091 227.395 344.431 227.286 348.8C227.178 353.169 226.116 357.462 224.175 361.378C222.234 365.293 219.461 368.738 216.05 371.47V371.47Z" fill="#BE7880" stroke="#070707" stroke-width="1.1" stroke-miterlimit="10"/>
<path d="M194.21 424.63V941" stroke="#070707" stroke-width="0.98" stroke-miterlimit="10"/>
<path d="M727.07 496H737.53C747.282 496 756.635 499.874 763.53 506.77C770.426 513.665 774.3 523.018 774.3 532.77V940.5H690.3V532.77C690.3 523.018 694.174 513.665 701.07 506.77C707.965 499.874 717.318 496 727.07 496Z" fill="white" stroke="#070707" stroke-width="1.01" stroke-miterlimit="10"/>
<path d="M732.46 379.78V941" stroke="#070707" stroke-width="1.17" stroke-miterlimit="10"/>
<path d="M802.79 627.2V937.55" stroke="#070707" stroke-width="1.1" stroke-miterlimit="10"/>
<path d="M732.26 411.23H556.47C556.47 411.23 585.67 472.91 658.96 480.62C732.25 488.33 732.26 560.34 732.26 560.34V411.23Z" fill="#BE7880" stroke="#070707" stroke-width="1.1" stroke-miterlimit="10"/>
<path d="M611 420.56C611 420.56 612.65 450.86 668.86 458.56C725.07 466.26 732.24 510.2 732.24 510.2V411.2H611.98L611 420.56Z" fill="#BF6C2B" stroke="#070707" stroke-width="1.1" stroke-miterlimit="10"/>
<path d="M732.26 411.23H908C908 411.23 878.8 472.91 805.51 480.62C732.22 488.33 732.22 560.34 732.22 560.34L732.26 411.23Z" fill="#BE7880" stroke="#070707" stroke-width="1.1" stroke-miterlimit="10"/>
<path d="M853.49 420.56C853.49 420.56 851.84 450.86 795.63 458.56C739.42 466.26 732.26 510.2 732.26 510.2V411.2H852.51L853.49 420.56Z" fill="#BF6C2B" stroke="#070707" stroke-width="1.1" stroke-miterlimit="10"/>
<path d="M732.26 399.62C743.217 399.62 752.1 390.737 752.1 379.78C752.1 368.823 743.217 359.94 732.26 359.94C721.303 359.94 712.42 368.823 712.42 379.78C712.42 390.737 721.303 399.62 732.26 399.62Z" fill="#BF6C2B" stroke="#070707" stroke-width="1.1" stroke-miterlimit="10"/>
<path d="M732.26 417.25C752.954 417.25 769.73 400.474 769.73 379.78C769.73 359.086 752.954 342.31 732.26 342.31C711.566 342.31 694.79 359.086 694.79 379.78C694.79 400.474 711.566 417.25 732.26 417.25Z" stroke="#070707" stroke-miterlimit="10"/>
<path d="M698.69 494.42C698.69 494.42 729.69 471.1 765.83 494.42C747.23 509.473 735.07 531.052 731.83 554.76C731.83 554.76 724.84 510.66 698.69 494.42Z" fill="#070707"/>
<path d="M715.29 369.49C715.29 369.49 721.44 402.13 751.29 385.43C751.29 385.43 747.52 399.33 732.44 399.76C732.42 399.76 703.76 396.09 715.29 369.49Z" fill="#070707"/>
<path d="M168 295.24C168 295.24 177.85 323.5 193.85 322.5C193.85 322.5 158.85 349.5 187.85 369.5C187.85 369.5 167.35 406.63 188.6 423.06C188.6 423.06 170.16 421.62 166.51 396.06C166.51 396.06 164.85 379.5 177.85 370.5C177.85 370.5 166.21 363.64 167.53 343.07C167.53 343.07 167.85 334.5 177.85 324.5C177.8 324.5 166.09 319 168 295.24Z" fill="#070707"/>
<path d="M439.31 842.95C449.66 842.95 458.05 834.56 458.05 824.21C458.05 813.86 449.66 805.47 439.31 805.47C428.96 805.47 420.57 813.86 420.57 824.21C420.57 834.56 428.96 842.95 439.31 842.95Z" fill="#BF6C2B" stroke="#070707" stroke-width="1.1" stroke-miterlimit="10"/>
<path d="M428.76 808.8C428.76 808.8 417.81 838.52 454.09 835.72C454.09 835.72 442.46 849.27 427.21 838.51C427.21 838.51 410.67 825.6 428.76 808.8Z" fill="#070707"/>
<path d="M440.56 943V843" stroke="#070707" stroke-width="1.2" stroke-miterlimit="10"/>
<path d="M338.8 872.5H409.8C409.8 872.5 440.8 873.5 440.8 941.5C440.8 941.5 364.8 943.5 366.8 911.5C366.8 911.5 324.8 903.5 338.8 872.5Z" fill="#BF6C2B" stroke="#070707" stroke-width="1.1" stroke-miterlimit="10"/>
<path d="M543 872.5H472C472 872.5 441 873.5 441 941.5C441 941.5 517 943.5 515 911.5C515 911.5 557 903.5 543 872.5Z" fill="white" stroke="#070707" stroke-width="1.1" stroke-miterlimit="10"/>
<path d="M92.8 603.5C92.8 603.5 169.8 613.5 171.8 695.5C171.8 695.5 111.8 710.5 92.8 603.5Z" fill="white" stroke="#070707" stroke-width="1.1" stroke-miterlimit="10"/>
<path d="M170.8 694.5C170.8 694.5 230.8 709.5 249.8 602.5C249.8 602.5 172.8 612.5 170.8 694.5Z" fill="white" stroke="#070707" stroke-width="1.1" stroke-miterlimit="10"/>
<path d="M170.84 545.78V940" stroke="#070707" stroke-width="0.86" stroke-miterlimit="10"/>
<path d="M172.26 565.62C183.217 565.62 192.1 556.737 192.1 545.78C192.1 534.823 183.217 525.94 172.26 525.94C161.303 525.94 152.42 534.823 152.42 545.78C152.42 556.737 161.303 565.62 172.26 565.62Z" fill="#BF6C2B" stroke="#070707" stroke-width="1.1" stroke-miterlimit="10"/>
<path d="M172.26 583.25C192.954 583.25 209.73 566.474 209.73 545.78C209.73 525.086 192.954 508.31 172.26 508.31C151.566 508.31 134.79 525.086 134.79 545.78C134.79 566.474 151.566 583.25 172.26 583.25Z" stroke="#070707" stroke-miterlimit="10"/>
<path d="M166.46 527.05C166.46 527.05 154.8 557.5 179.8 563.5C179.8 563.5 167.73 571.82 153.26 553.16C153.26 553.16 147.12 534.59 166.46 527.05Z" fill="#070707"/>
<path d="M668.5 274.9V941" stroke="#070707" stroke-width="1.11" stroke-miterlimit="10"/>
<path d="M593.69 301.18L668.85 395.89L764.79 299.95" stroke="#070707" stroke-width="1.22" stroke-miterlimit="10"/>
<path d="M586.04 249.55L668.85 332.37L751.67 249.55" stroke="#070707" stroke-width="1.22" stroke-miterlimit="10"/>
<path d="M776.31 840.95C786.66 840.95 795.05 832.56 795.05 822.21C795.05 811.86 786.66 803.47 776.31 803.47C765.96 803.47 757.57 811.86 757.57 822.21C757.57 832.56 765.96 840.95 776.31 840.95Z" fill="#BF6C2B" stroke="#070707" stroke-width="1.1" stroke-miterlimit="10"/>
<path d="M765.76 806.8C765.76 806.8 754.76 836.52 791.09 833.72C791.09 833.72 779.46 847.27 764.21 836.51C764.21 836.51 747.67 823.6 765.76 806.8Z" fill="#070707"/>
<path d="M777.56 941V841" stroke="#070707" stroke-width="1.2" stroke-miterlimit="10"/>
<path d="M675.8 870.5H746.8C746.8 870.5 777.8 871.5 777.8 939.5C777.8 939.5 701.8 941.5 703.8 909.5C703.8 909.5 661.8 901.5 675.8 870.5Z" fill="#BF6C2B" stroke="#070707" stroke-width="1.1" stroke-miterlimit="10"/>
<path d="M880 870.5H809C809 870.5 778 871.5 778 939.5C778 939.5 854 941.5 852 909.5C852 909.5 894 901.5 880 870.5Z" fill="white" stroke="#070707" stroke-width="1.1" stroke-miterlimit="10"/>
<path d="M359.28 586.24C367.029 586.24 373.31 579.959 373.31 572.21C373.31 564.461 367.029 558.18 359.28 558.18C351.531 558.18 345.25 564.461 345.25 572.21C345.25 579.959 351.531 586.24 359.28 586.24Z" fill="#BE7880" stroke="#070707" stroke-width="0.83" stroke-miterlimit="10"/>
<path d="M351.38 560.67C351.38 560.67 343.18 582.93 370.38 580.83C370.38 580.83 361.67 590.97 350.26 582.92C350.22 582.92 337.83 573.25 351.38 560.67Z" fill="#070707"/>
<path d="M142.28 479.24C150.029 479.24 156.31 472.959 156.31 465.21C156.31 457.461 150.029 451.18 142.28 451.18C134.531 451.18 128.25 457.461 128.25 465.21C128.25 472.959 134.531 479.24 142.28 479.24Z" fill="#BE7880" stroke="#070707" stroke-width="0.83" stroke-miterlimit="10"/>
<path d="M134.38 453.67C134.38 453.67 126.18 475.93 153.38 473.83C153.38 473.83 144.67 483.97 133.26 475.92C133.22 475.92 120.83 466.25 134.38 453.67Z" fill="#070707"/>
<path d="M670.82 871.2C670.82 871.2 643.82 908.43 619.29 911.07C594.76 913.71 585.1 927.89 598.4 933.55C611.7 939.21 695.83 931.71 695.83 931.71C695.83 931.71 704.91 912.56 698.39 903.35C691.87 894.14 682.8 873.16 701.09 867.21L670.82 871.2Z" fill="#56627B" stroke="#070707" stroke-width="0.93" stroke-miterlimit="10"/>
<path d="M697.74 925.56C697.74 925.56 605.07 931.94 593.06 924.56C593.06 924.56 589.17 932.43 602.94 934.8C616.71 937.17 697.8 932.66 697.8 932.66L697.74 925.56Z" fill="white" stroke="#070707" stroke-width="1.1" stroke-miterlimit="10"/>
<path d="M641.71 582.32C623.16 625.18 658.8 885.5 658.8 885.5L698.8 888.5C698.8 888.5 711.38 830 708 817.43C700.58 790.01 679.18 772.29 693.46 756.14C706.46 741.44 716.71 685.8 720.07 677.89C720.07 677.89 764.07 643.15 736.73 552.05L641.71 582.32Z" fill="#BE7880" stroke="#070707" stroke-width="1.1" stroke-miterlimit="10"/>
<path d="M719.72 876.27C719.72 876.27 693.44 914 669 917.17C644.56 920.34 635.16 934.69 648.58 940.08C662 945.47 745.94 936.26 745.94 936.26C745.94 936.26 754.64 916.93 747.94 907.85C741.24 898.77 731.74 877.98 749.94 871.66L719.72 876.27Z" fill="#56627B" stroke="#070707" stroke-width="0.93" stroke-miterlimit="10"/>
<path d="M747.73 930.07C747.73 930.07 655.21 938.33 643.05 931.16C643.05 931.16 639.32 939.16 653.13 941.21C666.94 943.26 747.94 937.13 747.94 937.13L747.73 930.07Z" fill="white" stroke="#070707" stroke-width="1.1" stroke-miterlimit="10"/>
<path d="M637 585.23C626.7 630.79 708.8 887.5 708.8 887.5L749.09 888.56C749.09 888.56 751.36 815.7 745.69 803.99C733.32 778.41 709.01 764.99 720.05 746.45C730.1 729.59 729.86 673.02 731.69 664.62C731.69 664.62 768.47 622.34 724.69 537.88L637 585.23Z" fill="#BE7880" stroke="#070707" stroke-width="1.1" stroke-miterlimit="10"/>
<path d="M252.26 381.78V939.55" stroke="#070707" stroke-width="1.1" stroke-miterlimit="10"/>
<path d="M378.43 372L435.09 353.62C435.09 353.62 448.62 336.43 422.29 341.3L396.93 345.89L375.93 358.24L378.43 372Z" fill="white" stroke="#070707" stroke-width="1.48" stroke-miterlimit="10"/>
<path d="M531.34 199.15C531.329 210.349 528.838 221.407 524.045 231.529C519.252 241.65 512.277 250.585 503.62 257.69C501.323 259.559 499.466 261.912 498.182 264.581C496.898 267.25 496.218 270.169 496.19 273.13V291.24C496.169 296.5 494.06 301.537 490.326 305.242C486.592 308.948 481.54 311.019 476.28 311H438C432.737 310.989 427.694 308.889 423.979 305.161C420.264 301.433 418.182 296.383 418.19 291.12V276.12C418.199 273.023 417.48 269.968 416.091 267.201C414.701 264.433 412.68 262.032 410.19 260.19C399.74 252.48 391.439 242.221 386.081 230.391C380.723 218.561 378.485 205.556 379.582 192.616C380.678 179.675 385.072 167.232 392.345 156.473C399.618 145.713 409.526 136.997 421.125 131.156C432.724 125.314 445.626 122.542 458.6 123.104C471.575 123.667 484.189 127.544 495.239 134.367C506.289 141.19 515.406 150.73 521.721 162.078C528.035 173.426 531.337 186.203 531.31 199.19L531.34 199.15Z" fill="#ECE856" stroke="#070707" stroke-width="1.5" stroke-linejoin="bevel"/>
<path d="M494.8 295.5H420.8C414.173 295.5 408.8 300.873 408.8 307.5V308.5C408.8 315.127 414.173 320.5 420.8 320.5H494.8C501.427 320.5 506.8 315.127 506.8 308.5V307.5C506.8 300.873 501.427 295.5 494.8 295.5Z" fill="white" stroke="#070707" stroke-width="1.5" stroke-miterlimit="10"/>
<path d="M484.51 321.5H433.09C427.407 321.5 422.8 326.107 422.8 331.79V336.21C422.8 341.893 427.407 346.5 433.09 346.5H484.51C490.193 346.5 494.8 341.893 494.8 336.21V331.79C494.8 326.107 490.193 321.5 484.51 321.5Z" fill="white" stroke="#070707" stroke-width="1.5" stroke-miterlimit="10"/>
<path d="M471.1 391.39L500.83 339.78C500.83 339.78 499.35 317.95 483.08 339.21L467.33 359.62L460 382.85L471.1 391.39Z" fill="white" stroke="#070707" stroke-width="1.48" stroke-miterlimit="10"/>
<path d="M301.78 870.2C301.78 870.2 328.78 907.43 353.32 910.07C377.86 912.71 387.51 926.89 374.2 932.55C360.89 938.21 276.78 930.71 276.78 930.71C276.78 930.71 267.69 911.56 274.22 902.35C280.75 893.14 289.81 872.16 271.52 866.21L301.78 870.2Z" fill="#56627B" stroke="#070707" stroke-width="0.93" stroke-miterlimit="10"/>
<path d="M274.86 924.56C274.86 924.56 367.54 930.94 379.55 923.56C379.55 923.56 383.44 931.43 369.67 933.8C355.9 936.17 274.8 931.66 274.8 931.66L274.86 924.56Z" fill="white" stroke="#070707" stroke-width="1.1" stroke-miterlimit="10"/>
<path d="M330.89 581.32C349.45 624.18 315.8 886.5 315.8 886.5H275.8C275.8 886.5 261.22 829 264.62 816.43C272.03 789.01 293.43 771.29 279.15 755.14C266.15 740.44 255.91 684.8 252.54 676.89C252.54 676.89 208.54 642.15 235.89 551.05L330.89 581.32Z" fill="#ECE856" stroke="#070707" stroke-width="0.91" stroke-linejoin="bevel"/>
<path d="M398.9 371.39L308.8 452.5L281.8 401.5L376.8 352.5L398.9 371.39Z" fill="#56627B" stroke="#070707" stroke-width="1.1" stroke-miterlimit="10"/>
<path d="M252.89 875.27C252.89 875.27 279.17 913.03 303.6 916.17C328.03 919.31 337.44 933.69 324.03 939.08C310.62 944.47 226.66 935.26 226.66 935.26C226.66 935.26 217.97 915.93 224.66 906.85C231.35 897.77 240.86 876.98 222.66 870.66L252.89 875.27Z" fill="#56627B" stroke="#070707" stroke-width="0.93" stroke-miterlimit="10"/>
<path d="M224.87 929.07C224.87 929.07 317.4 937.33 329.56 930.16C329.56 930.16 333.29 938.16 319.47 940.21C305.65 942.26 224.67 936.13 224.67 936.13L224.87 929.07Z" fill="white" stroke="#070707" stroke-width="1.1" stroke-miterlimit="10"/>
<path d="M335.62 584.23C345.91 629.79 264.8 885.5 264.8 885.5L223.52 887.56C223.52 887.56 221.25 814.7 226.91 802.99C239.28 777.41 263.6 763.99 252.56 745.45C242.5 728.59 242.75 672.02 240.91 663.62C240.91 663.62 204.14 621.34 247.91 536.88L335.62 584.23Z" fill="#ECE856" stroke="#070707" stroke-width="0.91" stroke-linejoin="bevel"/>
<path d="M259.79 339.53L259.99 359.5L288.99 360.5V336.5H260.99L259.79 339.53Z" fill="white" stroke="#070707" stroke-width="1.04" stroke-miterlimit="10"/>
<path d="M253.49 360L257.99 348.27L290.49 357L326.49 433L341.49 613L220.49 587L253.49 360Z" fill="#56627B" stroke="#070707" stroke-width="1.1" stroke-miterlimit="10"/>
<path d="M274.8 377.5C274.8 377.5 381.48 442.84 386.89 439.3C392.3 435.76 461.73 366.55 461.73 366.55L480 381L395.8 487.5L258.8 454.5" fill="#56627B"/>
<path d="M274.8 377.5C274.8 377.5 381.48 442.84 386.89 439.3C392.3 435.76 461.73 366.55 461.73 366.55L480 381L395.8 487.5L258.8 454.5" stroke="#070707" stroke-width="1.1" stroke-miterlimit="10"/>
<path d="M228.3 589L336.3 612V634L228.3 594V589Z" fill="#070707"/>
<path d="M437.8 200.5C437.8 200.5 459.49 218.5 457.64 295.5" stroke="#070707" stroke-width="0.91" stroke-linejoin="bevel"/>
<path d="M486.8 184.5C486.8 184.5 457.27 184.45 455.8 249.5" stroke="#070707" stroke-width="0.91" stroke-linejoin="bevel"/>
<path d="M709.1 349.53L708.89 369.5L679.89 370.5V346.5H707.89L709.1 349.53Z" fill="white" stroke="#070707" stroke-width="1.04" stroke-miterlimit="10"/>
<path d="M656 291.08L655.93 297.92C655.917 298.444 655.802 298.961 655.59 299.44L647.59 317.03C646.36 319.75 648.59 322.73 651.88 322.77C652.904 322.744 653.908 323.062 654.73 323.673C655.553 324.284 656.148 325.152 656.42 326.14C657.849 332.69 661.45 338.565 666.638 342.811C671.826 347.057 678.297 349.425 685 349.53L707.22 349.77C708.391 349.844 709.544 349.453 710.428 348.681C711.312 347.91 711.855 346.82 711.94 345.65L712.52 291.65C712.463 290.477 711.944 289.373 711.077 288.581C710.209 287.788 709.064 287.371 707.89 287.42L660.76 286.92C660.173 286.877 659.584 286.95 659.026 287.136C658.468 287.322 657.953 287.618 657.51 288.005C657.067 288.392 656.706 288.863 656.446 289.391C656.187 289.919 656.035 290.493 656 291.08Z" fill="white" stroke="#070707" stroke-width="1.04" stroke-miterlimit="10"/>
<path d="M716.39 369L711.9 357.27L679.39 366L643.39 442L628.39 622L749.39 596L716.39 369Z" fill="#070707"/>
<path d="M612.45 398.46L635 343.32C635 343.32 653.16 331.12 646.34 357.01L639.87 382L626 402L612.45 398.46Z" fill="white" stroke="#070707" stroke-width="1.48" stroke-miterlimit="10"/>
<path d="M709.89 445.5L603.89 520.5L601.89 372.5L647.89 385.5L641.89 445.5L692.89 400.5" fill="#070707"/>
<path d="M709.89 445.5L603.89 520.5L601.89 372.5L647.89 385.5L641.89 445.5L692.89 400.5" stroke="white" stroke-miterlimit="10"/>
<path d="M138.3 943H873.3" stroke="#070707" stroke-miterlimit="10"/>
<path d="M253.42 277.5C253.17 278.25 252.93 279 252.7 279.76C253.02 278.38 253.21 277.63 253.21 277.63L253.42 277.5Z" fill="#070707"/>
<path d="M742.93 370.85C745.467 368.02 747.263 364.606 748.157 360.912C749.052 357.218 749.017 353.36 748.056 349.683C747.095 346.006 745.238 342.624 742.651 339.84C740.064 337.057 736.827 334.957 733.23 333.73C734.787 330.394 735.52 326.733 735.368 323.055C735.216 319.377 734.183 315.789 732.357 312.593C730.531 309.397 727.964 306.686 724.872 304.688C721.78 302.689 718.254 301.463 714.59 301.11C715.124 298.609 715.392 296.058 715.39 293.5C715.39 276.66 703.97 263 689.89 263C688.994 263.001 688.099 263.058 687.21 263.17C681.621 257.805 674.137 254.868 666.39 255C651.48 255 639.39 265.07 639.39 277.5C639.39 289.5 650.72 299.35 664.97 299.97C667.42 313.52 677.39 323.71 689.39 323.97C689.386 328.78 690.89 333.469 693.69 337.38C696.49 341.29 700.445 344.225 705 345.77C702.452 351.229 702.148 357.47 704.153 363.15C706.157 368.831 710.311 373.499 715.72 376.15C712.504 379.738 710.495 384.246 709.979 389.037C709.462 393.828 710.464 398.66 712.841 402.851C715.219 407.042 718.853 410.381 723.23 412.396C727.608 414.41 732.507 414.999 737.237 414.079C741.968 413.159 746.289 410.777 749.592 407.268C752.895 403.76 755.013 399.303 755.647 394.526C756.28 389.749 755.397 384.894 753.123 380.646C750.848 376.397 747.297 372.971 742.97 370.85H742.93Z" fill="#BF6C2B" stroke="#070707" stroke-width="1.1" stroke-miterlimit="10"/>
<path d="M636.8 619.5L636.79 631.86L745.48 603.87L744.32 595.74L636.8 619.5Z" fill="#070707"/>
<path d="M233.44 887.49C233.23 886.14 261.35 885.72 261.35 885.72L266 891L229.7 899.07C229.7 899.07 234.08 891.48 233.44 887.49Z" fill="#070707"/>
<path d="M281.36 886.68L316.3 887L319.44 890.07L278.3 895.88L281.36 886.68Z" fill="#070707"/>
<path d="M649.75 894.82L658.8 885.5L691.29 888.18L695.28 898L649.75 894.82Z" fill="#070707"/>
<path d="M704.3 894L748.3 909L741.3 896L739.94 888.38L711.07 887.96L704.3 894Z" fill="#070707"/>
<path d="M229.21 521.9L337.4 561.56L341.3 613L220.3 587L229.21 521.9Z" fill="#BE7880" stroke="#070707" stroke-width="1.1" stroke-miterlimit="10"/>
<path d="M214.3 941V666.33" stroke="#070707" stroke-width="0.95" stroke-miterlimit="10"/>
<path d="M144.25 627.21L214.67 725.91L214.79 801.89L154.17 725.85L144.25 627.21Z" fill="#BF6C2B" stroke="#070707" stroke-width="1.1" stroke-miterlimit="10"/>
<path d="M214.79 705.18L245.65 648.7L288.08 643.19V680.11L214.79 705.18Z" fill="white" stroke="#070707" stroke-width="1.1" stroke-miterlimit="10"/>
<path d="M154.2 725.89C154.2 725.89 214.08 813.35 214.51 725.89L214.94 801.72L154.2 725.89Z" fill="#070707"/>
<path d="M245.53 648.35C245.76 647.98 214.94 705.21 214.94 705.21L288.18 680.21C288.18 680.21 205 712.11 245.53 648.35Z" fill="#070707"/>
<path d="M440.8 605.5C440.8 605.5 517.8 615.5 519.8 697.5C519.8 697.5 459.8 712.5 440.8 605.5Z" fill="white" stroke="#070707" stroke-width="1.1" stroke-miterlimit="10"/>
<path d="M518.8 696.5C518.8 696.5 578.8 711.5 597.8 604.5C597.8 604.5 520.8 614.5 518.8 696.5Z" fill="white" stroke="#070707" stroke-width="1.1" stroke-miterlimit="10"/>
<path d="M518.91 547.78V941" stroke="#070707" stroke-width="0.88" stroke-miterlimit="10"/>
<path d="M520.26 567.62C531.217 567.62 540.1 558.737 540.1 547.78C540.1 536.823 531.217 527.94 520.26 527.94C509.303 527.94 500.42 536.823 500.42 547.78C500.42 558.737 509.303 567.62 520.26 567.62Z" fill="#BF6C2B" stroke="#070707" stroke-width="1.1" stroke-miterlimit="10"/>
<path d="M520.26 585.25C540.954 585.25 557.73 568.474 557.73 547.78C557.73 527.086 540.954 510.31 520.26 510.31C499.566 510.31 482.79 527.086 482.79 547.78C482.79 568.474 499.566 585.25 520.26 585.25Z" stroke="#070707" stroke-miterlimit="10"/>
<path d="M507.8 831.5C507.8 831.5 584.8 841.5 586.8 923.5C586.8 923.5 526.8 938.5 507.8 831.5Z" fill="white" stroke="#070707" stroke-width="1.1" stroke-miterlimit="10"/>
<path d="M585.8 922.5C585.8 922.5 645.8 937.5 664.8 830.5C664.8 830.5 587.8 840.5 585.8 922.5Z" fill="white" stroke="#070707" stroke-width="1.1" stroke-miterlimit="10"/>
<path d="M585.36 774.78V945" stroke="#070707" stroke-width="0.86" stroke-miterlimit="10"/>
<path d="M587.26 793.62C598.217 793.62 607.1 784.737 607.1 773.78C607.1 762.823 598.217 753.94 587.26 753.94C576.303 753.94 567.42 762.823 567.42 773.78C567.42 784.737 576.303 793.62 587.26 793.62Z" fill="#BF6C2B" stroke="#070707" stroke-width="1.1" stroke-miterlimit="10"/>
<path d="M587.26 811.25C607.954 811.25 624.73 794.474 624.73 773.78C624.73 753.086 607.954 736.31 587.26 736.31C566.566 736.31 549.79 753.086 549.79 773.78C549.79 794.474 566.566 811.25 587.26 811.25Z" stroke="#070707" stroke-miterlimit="10"/>
<path d="M507.8 532.5C507.8 532.5 505.8 562.5 530.8 563.5C530.8 563.5 525.56 570.08 515.18 566.79C504.8 563.5 491.8 548.5 507.8 532.5Z" fill="#070707"/>
<path d="M576.87 757.21C576.87 757.21 574.8 789.5 600.8 787.5C600.8 787.5 588.72 801.25 572.26 786.87C572.26 786.87 558.94 769.91 576.87 757.21Z" fill="#070707"/>
<path d="M839.31 373.95C849.66 373.95 858.05 365.56 858.05 355.21C858.05 344.86 849.66 336.47 839.31 336.47C828.96 336.47 820.57 344.86 820.57 355.21C820.57 365.56 828.96 373.95 839.31 373.95Z" fill="#BF6C2B" stroke="#070707" stroke-width="1.1" stroke-miterlimit="10"/>
<path d="M828.76 339.8C828.76 339.8 817.76 369.52 854.09 366.72C854.09 366.72 842.46 380.27 827.21 369.51C827.21 369.51 810.67 356.6 828.76 339.8Z" fill="#070707"/>
<path d="M306.27 348L343.8 343.79L323.8 282.49L294.8 279.5L306.27 348Z" fill="#070707"/>
<path d="M312.89 281.08L312.96 287.92C312.968 288.445 313.083 288.962 313.3 289.44L321.3 307.03C322.54 309.75 320.3 312.73 317.01 312.77C315.986 312.746 314.983 313.065 314.161 313.675C313.339 314.286 312.744 315.153 312.47 316.14C311.046 322.678 307.458 328.544 302.285 332.789C297.113 337.033 290.66 339.409 283.97 339.53L261.75 339.77C260.578 339.847 259.424 339.457 258.539 338.684C257.655 337.912 257.112 336.821 257.03 335.65L256.45 281.65C256.507 280.477 257.026 279.373 257.893 278.581C258.761 277.788 259.906 277.371 261.08 277.42L308.21 276.92C309.381 276.857 310.529 277.259 311.405 278.038C312.282 278.817 312.815 279.91 312.89 281.08V281.08Z" fill="white" stroke="#070707" stroke-width="1.04" stroke-miterlimit="10"/>
<path d="M293.05 310.31L305.3 357L242.3 347.74C243.15 329.34 246.62 308.97 249.42 294.96C249.42 294.96 249.42 294.96 249.42 294.89C250.81 287.96 252.03 282.59 252.69 279.78C252.92 279.02 253.16 278.27 253.41 277.52C257.41 265.6 264.57 254.25 277.29 252.02C317.29 245.02 332.29 285.02 332.29 285.02L287.39 291.43C290.011 297.479 291.911 303.816 293.05 310.31Z" fill="#070707"/>
<path d="M246.3 311L319.3 264L314.3 254L239.3 299L246.21 310.85" fill="#ECE856"/>
<path d="M246.3 311L319.3 264L314.3 254L239.3 299L246.21 310.85" stroke="#070707" stroke-width="1.5" stroke-linejoin="bevel"/>
<path d="M242.3 297C242.3 297 241.3 289 236.3 278C231.3 267 234.3 210 252.3 224C270.3 238 298.3 244 311.3 256L242.3 297Z" fill="#ECE856" stroke="#070707" stroke-width="1.5" stroke-linejoin="bevel"/>
</svg>
